<?xml version="1.0" standalone="no"?><!DOCTYPE svg PUBLIC "-//W3C//DTD SVG 1.1//EN" "http://www.w3.org/Graphics/SVG/1.1/DTD/svg11.dtd"><svg class="icon" height="512" viewBox="0 0 1024 1024" version="1.1" xmlns="http://www.w3.org/2000/svg"><path d="M505.6 544c150.4 0 275.2-121.6 275.2-272 0-150.4-121.6-272-275.2-272-150.4 0-275.2 121.6-275.2 272C230.4 422.4 355.2 544 505.6 544zM505.6 38.4c131.2 0 236.8 105.6 236.8 233.6 0 128-105.6 233.6-236.8 233.6-131.2 0-236.8-105.6-236.8-233.6C268.8 144 374.4 38.4 505.6 38.4zM512 588.8C300.8 588.8 44.8 755.2 44.8 960l0 64 38.4 0 0-64c0-179.2 233.6-332.8 425.6-332.8 192 0 425.6 153.6 425.6 332.8l0 64 38.4 0 0-64C979.2 755.2 723.2 588.8 512 588.8z" /></svg>